<?xml version="1.0" encoding="UTF-8" standalone="no"?>
<!DOCTYPE svg PUBLIC "-//W3C//DTD SVG 1.1//EN"
 "http://www.w3.org/Graphics/SVG/1.1/DTD/svg11.dtd">
<!-- Generated by graphviz version 5.0.0 (20220707.1540)
 -->
<!-- Title: UmlClassDiagram Pages: 1 -->
<svg width="882pt" height="920pt"
 viewBox="0.00 0.00 882.48 919.80" xmlns="http://www.w3.org/2000/svg" xmlns:xlink="http://www.w3.org/1999/xlink">
<g id="graph0" class="graph" transform="scale(1 1) rotate(0) translate(4 915.8)">
<title>UmlClassDiagram</title>
<polygon fill="white" stroke="transparent" points="-4,4 -4,-915.8 878.48,-915.8 878.48,4 -4,4"/>
<!-- 0 -->
<g id="node1" class="node">
<title>0</title>
<polygon fill="#f2f2f2" stroke="black" points="41.22,-0.5 41.22,-444.5 516.82,-444.5 516.82,-0.5 41.22,-0.5"/>
<text text-anchor="middle" x="279.02" y="-427.9" font-family="Times,serif" font-size="14.00">GasContract</text>
<text text-anchor="middle" x="279.02" y="-411.1" font-family="Times,serif" font-size="14.00">srcUmlClassDiagramas.sol</text>
<polyline fill="none" stroke="black" points="41.22,-402.9 516.82,-402.9 "/>
<text text-anchor="start" x="49.22" y="-386.3" font-family="Times,serif" font-size="14.00">Private:</text>
<text text-anchor="start" x="49.22" y="-369.5" font-family="Times,serif" font-size="14.00"> &#160;&#160;totalSupply: uint256</text>
<text text-anchor="start" x="49.22" y="-352.7" font-family="Times,serif" font-size="14.00"> &#160;&#160;tradePercent: uint256</text>
<text text-anchor="start" x="49.22" y="-335.9" font-family="Times,serif" font-size="14.00">Public:</text>
<text text-anchor="start" x="49.22" y="-319.1" font-family="Times,serif" font-size="14.00"> &#160;&#160;paymentCounter: uint256</text>
<text text-anchor="start" x="49.22" y="-302.3" font-family="Times,serif" font-size="14.00"> &#160;&#160;contractOwner: address</text>
<text text-anchor="start" x="49.22" y="-285.5" font-family="Times,serif" font-size="14.00"> &#160;&#160;payments: mapping(address=&gt;Payment[])</text>
<text text-anchor="start" x="49.22" y="-268.7" font-family="Times,serif" font-size="14.00"> &#160;&#160;whitelist: mapping(address=&gt;uint256)</text>
<text text-anchor="start" x="49.22" y="-251.9" font-family="Times,serif" font-size="14.00"> &#160;&#160;balances: mapping(address=&gt;uint256)</text>
<text text-anchor="start" x="49.22" y="-235.1" font-family="Times,serif" font-size="14.00"> &#160;&#160;administrators: mapping(uint256=&gt;address)</text>
<text text-anchor="start" x="49.22" y="-218.3" font-family="Times,serif" font-size="14.00"> &#160;&#160;whiteListStruct: mapping(address=&gt;uint256)</text>
<polyline fill="none" stroke="black" points="41.22,-210.1 516.82,-210.1 "/>
<text text-anchor="start" x="49.22" y="-193.5" font-family="Times,serif" font-size="14.00">Public:</text>
<text text-anchor="start" x="49.22" y="-176.7" font-family="Times,serif" font-size="14.00"> &#160;&#160;&#160;&lt;&lt;event&gt;&gt; AddedToWhitelist(userAddress: address, tier: uint256)</text>
<text text-anchor="start" x="49.22" y="-159.9" font-family="Times,serif" font-size="14.00"> &#160;&#160;&#160;&lt;&lt;event&gt;&gt; WhiteListTransfer(address)</text>
<text text-anchor="start" x="49.22" y="-143.1" font-family="Times,serif" font-size="14.00"> &#160;&#160;&#160;&lt;&lt;modifier&gt;&gt; onlyAdminOrOwner()</text>
<text text-anchor="start" x="49.22" y="-126.3" font-family="Times,serif" font-size="14.00"> &#160;&#160;&#160;&lt;&lt;modifier&gt;&gt; checkIfWhiteListed()</text>
<text text-anchor="start" x="49.22" y="-109.5" font-family="Times,serif" font-size="14.00"> &#160;&#160;&#160;constructor(_admins: address[], _totalSupply: uint256)</text>
<text text-anchor="start" x="49.22" y="-92.7" font-family="Times,serif" font-size="14.00"> &#160;&#160;&#160;checkForAdmin(_user: address): (admin: bool)</text>
<text text-anchor="start" x="49.22" y="-75.9" font-family="Times,serif" font-size="14.00"> &#160;&#160;&#160;balanceOf(_user: address): uint256</text>
<text text-anchor="start" x="49.22" y="-59.1" font-family="Times,serif" font-size="14.00"> &#160;&#160;&#160;transfer(_recipient: address, _amount: uint256, _name: string): (status_: bool)</text>
<text text-anchor="start" x="49.22" y="-42.3" font-family="Times,serif" font-size="14.00"> &#160;&#160;&#160;addToWhitelist(_userAddrs: address, _tier: uint256) &lt;&lt;onlyAdminOrOwner&gt;&gt;</text>
<text text-anchor="start" x="49.22" y="-25.5" font-family="Times,serif" font-size="14.00"> &#160;&#160;&#160;whiteTransfer(_recipient: address, _amount: uint256) &lt;&lt;checkIfWhiteListed&gt;&gt;</text>
<text text-anchor="start" x="49.22" y="-8.7" font-family="Times,serif" font-size="14.00"> &#160;&#160;&#160;getPaymentStatus(sender: address): (bool, uint256)</text>
</g>
<!-- 1 -->
<g id="node2" class="node">
<title>1</title>
<polygon fill="#f2f2f2" stroke="black" points="0,-535.9 0,-703.1 168.03,-703.1 168.03,-535.9 0,-535.9"/>
<text text-anchor="middle" x="84.02" y="-686.5" font-family="Times,serif" font-size="14.00">&lt;&lt;Struct&gt;&gt;</text>
<text text-anchor="middle" x="84.02" y="-669.7" font-family="Times,serif" font-size="14.00">Payment</text>
<text text-anchor="middle" x="84.02" y="-652.9" font-family="Times,serif" font-size="14.00">srcUmlClassDiagramas.sol</text>
<polyline fill="none" stroke="black" points="0,-644.7 168.03,-644.7 "/>
<text text-anchor="start" x="8" y="-628.1" font-family="Times,serif" font-size="14.00">paymentID: uint256</text>
<text text-anchor="start" x="8" y="-611.3" font-family="Times,serif" font-size="14.00">adminUpdated: bool</text>
<text text-anchor="start" x="8" y="-594.5" font-family="Times,serif" font-size="14.00">recipientName: string</text>
<text text-anchor="start" x="8" y="-577.7" font-family="Times,serif" font-size="14.00">recipient: address</text>
<text text-anchor="start" x="8" y="-560.9" font-family="Times,serif" font-size="14.00">admin: address</text>
<text text-anchor="start" x="8" y="-544.1" font-family="Times,serif" font-size="14.00">amount: uint256</text>
</g>
<!-- 0&#45;&gt;1 -->
<g id="edge4" class="edge">
<title>0&#45;&gt;1</title>
<path fill="none" stroke="black" stroke-dasharray="5,2" d="M163.12,-444.67C148.97,-473.56 135.34,-501.77 123.5,-526.76"/>
<polygon fill="black" stroke="black" points="120.33,-525.29 119.22,-535.82 126.66,-528.28 120.33,-525.29"/>
</g>
<!-- 4 -->
<g id="node3" class="node">
<title>4</title>
<polygon fill="#f2f2f2" stroke="black" points="186.07,-590.3 186.07,-648.7 371.96,-648.7 371.96,-590.3 186.07,-590.3"/>
<text text-anchor="middle" x="279.02" y="-632.1" font-family="Times,serif" font-size="14.00">&lt;&lt;Interface&gt;&gt;</text>
<text text-anchor="middle" x="279.02" y="-615.3" font-family="Times,serif" font-size="14.00">GasCustomErrors</text>
<text text-anchor="middle" x="279.02" y="-598.5" font-family="Times,serif" font-size="14.00">srcInterfacesCustomErrors.sol</text>
</g>
<!-- 0&#45;&gt;4 -->
<g id="edge3" class="edge">
<title>0&#45;&gt;4</title>
<path fill="none" stroke="black" stroke-dasharray="5,2" d="M279.02,-444.67C279.02,-487.39 279.02,-528.62 279.02,-560.19"/>
<polygon fill="none" stroke="black" points="268.52,-560.27 279.02,-590.27 289.52,-560.27 268.52,-560.27"/>
</g>
<!-- 3 -->
<g id="node5" class="node">
<title>3</title>
<polygon fill="#f2f2f2" stroke="black" points="389.55,-481.5 389.55,-757.5 874.48,-757.5 874.48,-481.5 389.55,-481.5"/>
<text text-anchor="middle" x="632.02" y="-740.9" font-family="Times,serif" font-size="14.00">&lt;&lt;Abstract&gt;&gt;</text>
<text text-anchor="middle" x="632.02" y="-724.1" font-family="Times,serif" font-size="14.00">Ownable</text>
<text text-anchor="middle" x="632.02" y="-707.3" font-family="Times,serif" font-size="14.00">srcOwnable.sol</text>
<polyline fill="none" stroke="black" points="389.55,-699.1 874.48,-699.1 "/>
<text text-anchor="start" x="397.55" y="-682.5" font-family="Times,serif" font-size="14.00">Private:</text>
<text text-anchor="start" x="397.55" y="-665.7" font-family="Times,serif" font-size="14.00"> &#160;&#160;_owner: address</text>
<polyline fill="none" stroke="black" points="389.55,-657.5 874.48,-657.5 "/>
<text text-anchor="start" x="397.55" y="-640.9" font-family="Times,serif" font-size="14.00">Internal:</text>
<text text-anchor="start" x="397.55" y="-624.1" font-family="Times,serif" font-size="14.00"> &#160;&#160;&#160;_checkOwner()</text>
<text text-anchor="start" x="397.55" y="-607.3" font-family="Times,serif" font-size="14.00"> &#160;&#160;&#160;_transferOwnership(newOwner: address)</text>
<text text-anchor="start" x="397.55" y="-590.5" font-family="Times,serif" font-size="14.00">Public:</text>
<text text-anchor="start" x="397.55" y="-573.7" font-family="Times,serif" font-size="14.00"> &#160;&#160;&#160;&lt;&lt;event&gt;&gt; OwnershipTransferred(previousOwner: address, newOwner: address)</text>
<text text-anchor="start" x="397.55" y="-556.9" font-family="Times,serif" font-size="14.00"> &#160;&#160;&#160;&lt;&lt;modifier&gt;&gt; onlyOwner()</text>
<text text-anchor="start" x="397.55" y="-540.1" font-family="Times,serif" font-size="14.00"> &#160;&#160;&#160;constructor()</text>
<text text-anchor="start" x="397.55" y="-523.3" font-family="Times,serif" font-size="14.00"> &#160;&#160;&#160;owner(): address</text>
<text text-anchor="start" x="397.55" y="-506.5" font-family="Times,serif" font-size="14.00"> &#160;&#160;&#160;renounceOwnership() &lt;&lt;onlyOwner&gt;&gt;</text>
<text text-anchor="start" x="397.55" y="-489.7" font-family="Times,serif" font-size="14.00"> &#160;&#160;&#160;transferOwnership(newOwner: address) &lt;&lt;onlyOwner&gt;&gt;</text>
</g>
<!-- 0&#45;&gt;3 -->
<g id="edge2" class="edge">
<title>0&#45;&gt;3</title>
<path fill="none" stroke="black" d="M476.67,-444.67C480.92,-449.43 485.16,-454.17 489.37,-458.88"/>
<polygon fill="none" stroke="black" points="481.65,-466 509.47,-481.38 497.31,-452.01 481.65,-466"/>
</g>
<!-- 1&#45;&gt;0 -->
<g id="edge1" class="edge">
<title>1&#45;&gt;0</title>
<path fill="none" stroke="black" d="M130.44,-535.82C142.86,-511.76 156.81,-484.21 171.06,-455.66"/>
<polygon fill="black" stroke="black" points="171.18,-455.41 170.28,-448.26 176.54,-444.67 177.44,-451.83 171.18,-455.41"/>
</g>
<!-- 2 -->
<g id="node4" class="node">
<title>2</title>
<polygon fill="#f2f2f2" stroke="black" points="553.06,-794.5 553.06,-911.3 710.97,-911.3 710.97,-794.5 553.06,-794.5"/>
<text text-anchor="middle" x="632.02" y="-894.7" font-family="Times,serif" font-size="14.00">&lt;&lt;Abstract&gt;&gt;</text>
<text text-anchor="middle" x="632.02" y="-877.9" font-family="Times,serif" font-size="14.00">Context</text>
<text text-anchor="middle" x="632.02" y="-861.1" font-family="Times,serif" font-size="14.00">srcOwnable.sol</text>
<polyline fill="none" stroke="black" points="553.06,-852.9 710.97,-852.9 "/>
<text text-anchor="start" x="561.06" y="-836.3" font-family="Times,serif" font-size="14.00">Internal:</text>
<text text-anchor="start" x="561.06" y="-819.5" font-family="Times,serif" font-size="14.00"> &#160;&#160;&#160;_msgSender(): address</text>
<text text-anchor="start" x="561.06" y="-802.7" font-family="Times,serif" font-size="14.00"> &#160;&#160;&#160;_msgData(): bytes</text>
</g>
<!-- 3&#45;&gt;2 -->
<g id="edge5" class="edge">
<title>3&#45;&gt;2</title>
<path fill="none" stroke="black" d="M632.02,-757.78C632.02,-759.87 632.02,-761.95 632.02,-764.02"/>
<polygon fill="none" stroke="black" points="621.52,-764.29 632.02,-794.29 642.52,-764.29 621.52,-764.29"/>
</g>
</g>
</svg>
